<svg xmlns="http://www.w3.org/2000/svg" viewBox="0 0 247 200">
  <rect width="247" height="200" rx="48" fill="#18181b"/>
  <g transform="translate(0,200) scale(0.100000,-0.100000)" fill="#ffffff" stroke="none">
    <path d="M1115 1794 c-433 -65 -720 -367 -741 -779 -35 -667 712 -1101 1268
    -736 604 395 447 1319 -253 1495 -67 16 -221 28 -274 20z m172 -84 c543 -71
    824 -682 527 -1147 -212 -331 -651 -433 -996 -232 -356 208 -472 683 -252
    1036 151 243 438 380 721 343z"/>
    <path d="M938 1369 l-3 -42 -61 -1 c-89 -1 -94 -9 -94 -127 0 -59 4 -99 10
    -99 6 0 10 9 10 20 0 20 7 20 390 20 l390 0 0 -65 0 -64 -46 -27 c-30 -18 -67
    -29 -100 -32 l-54 -4 0 54 c0 65 -26 98 -78 98 -83 0 -95 -92 -21 -160 l31
    -28 -18 -48 c-52 -136 -170 -243 -212 -191 -26 33 -24 57 12 100 69 84 93 169
    58 200 -60 55 -133 -24 -148 -160 -9 -75 -14 -85 -71 -122 -112 -75 -128 -23
    -47 150 71 150 80 205 39 237 -45 35 -101 14 -183 -69 -52 -52 -70 -87 -57
    -108 8 -13 45 -15 45 -2 0 15 91 111 120 126 58 30 54 -10 -17 -159 -69 -148
    -78 -202 -40 -240 41 -41 116 -30 185 29 l30 25 17 -26 c70 -107 231 -21 315
    169 l31 72 57 1 c36 1 73 9 101 23 25 11 46 21 48 21 2 0 3 -83 3 -185 l0
    -185 -250 0 c-137 0 -250 -4 -250 -9 0 -9 281 -23 414 -20 121 2 119 -1 115
    228 l-4 186 44 51 c81 95 123 194 87 207 -18 7 -37 -15 -69 -78 -14 -28 -34
    -61 -46 -75 l-21 -25 2 132 c3 156 4 156 -92 161 l-69 4 -3 34 c-4 45 -22 44
    -26 -1 l-3 -35 -197 -1 c-108 -1 -208 -2 -221 -3 -22 -1 -25 3 -25 38 -1 55
    -24 59 -28 5z m2 -104 c0 -19 4 -35 10 -35 12 0 24 45 15 59 -4 8 63 11 219
    11 l226 0 0 -35 c0 -24 5 -35 15 -35 11 0 15 11 15 35 l0 36 68 -3 67 -3 3
    -62 3 -63 -58 -2 c-32 -1 -208 -2 -390 -2 l-333 -1 0 52 c0 80 3 83 76 83 l64
    0 0 -35z m384 -248 c6 -15 6 -30 2 -34 -10 -10 -36 26 -36 50 0 26 23 16 34
    -16z m-238 -159 c-32 -54 -35 -23 -4 42 18 38 22 42 25 23 3 -13 -7 -42 -21
    -65z"/>
  </g>
</svg>
